<?xml version="1.0" standalone="no"?>
<!DOCTYPE svg PUBLIC "-//W3C//DTD SVG 20010904//EN"
 "http://www.w3.org/TR/2001/REC-SVG-20010904/DTD/svg10.dtd">
<svg version="1.0" xmlns="http://www.w3.org/2000/svg"
 width="337.000000pt" height="505.000000pt" viewBox="0 0 337.000000 505.000000"
 preserveAspectRatio="xMidYMid meet">

<g transform="translate(0.000000,505.000000) scale(0.100000,-0.100000)"
fill="#000000" stroke="none">
<path d="M0 4445 c0 -397 3 -605 10 -605 6 0 10 -18 10 -40 0 -24 5 -40 12
-40 8 0 9 32 5 120 -7 118 -6 120 14 120 20 0 21 4 16 55 -3 30 -1 57 4 60 5
4 10 -4 10 -17 1 -13 5 0 9 27 4 30 3 55 -3 63 -7 9 -7 16 1 24 7 7 12 37 12
67 0 150 29 -82 35 -284 2 -66 9 -151 16 -188 6 -38 9 -81 7 -95 -3 -15 -2
-40 2 -57 6 -22 8 -12 9 39 1 74 9 81 21 19 7 -36 8 -34 9 18 1 53 -15 89 -32
72 -4 -3 -7 3 -7 15 0 13 6 22 15 22 10 0 15 11 16 33 2 44 -1 216 -6 305 -2
42 1 70 6 66 5 -3 9 -16 9 -30 0 -14 4 -22 10 -19 5 3 10 15 10 26 0 10 5 19
10 19 6 0 10 16 10 36 0 21 4 33 10 29 6 -3 10 -1 10 4 0 6 -7 11 -15 11 -8 0
-15 -5 -15 -11 0 -5 -5 -7 -12 -3 -8 5 -6 11 5 19 10 7 17 24 17 39 0 15 4 25
9 21 5 -3 12 -1 16 5 3 5 -3 10 -14 10 -26 0 -26 -3 4 62 14 29 25 45 25 36 0
-10 4 -18 8 -18 4 0 6 42 5 93 -2 50 -5 140 -7 200 -2 59 0 107 5 107 9 0 14
-44 10 -88 -1 -12 2 -30 8 -39 22 -41 26 189 4 262 l-9 30 -152 3 -152 3 0
-606z m272 158 c-2 -46 -8 -81 -12 -78 -4 3 -7 36 -5 75 3 67 2 70 -21 70 -12
0 -26 5 -29 10 -3 6 3 10 13 10 13 0 22 9 27 28 l8 27 12 -30 c7 -19 10 -61 7
-112z m-35 31 c-3 -3 -12 -4 -19 -1 -8 3 -5 6 6 6 11 1 17 -2 13 -5z m3 -80
c0 -22 -2 -25 -15 -14 -12 10 -13 16 -4 26 16 20 19 18 19 -12z m0 -59 c0 -8
-7 -15 -16 -15 -14 0 -14 3 -4 15 7 8 14 15 16 15 2 0 4 -7 4 -15z m-25 -85
c3 -5 1 -10 -4 -10 -6 0 -11 5 -11 10 0 6 2 10 4 10 3 0 8 -4 11 -10z m-28
-112 c-3 -7 -5 -2 -5 12 0 14 2 19 5 13 2 -7 2 -19 0 -25z m-100 -50 c-3 -7
-5 -2 -5 12 0 14 2 19 5 13 2 -7 2 -19 0 -25z"/>
<path d="M330 5045 c0 -4 7 -20 16 -36 8 -17 13 -37 10 -45 -3 -7 1 -20 9 -27
8 -8 11 -24 8 -36 -3 -13 -1 -21 7 -21 9 0 10 13 5 46 -4 32 -3 44 4 39 6 -3
11 -12 11 -20 0 -19 28 -34 52 -27 13 3 18 11 15 22 -2 10 -1 24 4 31 6 10 9
6 9 -13 0 -18 5 -28 15 -28 7 0 18 -8 24 -17 15 -27 35 -1 34 43 -1 27 2 34
15 32 13 -2 18 -18 22 -58 4 -40 8 -50 14 -37 5 10 15 16 22 13 10 -4 14 5 15
32 1 31 3 27 11 -22 10 -61 4 -102 -11 -77 -13 20 -51 -8 -51 -38 0 -20 3 -22
12 -13 17 17 28 15 28 -5 0 -15 3 -15 21 3 16 17 22 40 28 101 4 56 3 79 -4
77 -6 -3 -16 16 -23 41 -7 27 -18 45 -27 45 -9 0 -12 -6 -9 -15 4 -8 10 -15
15 -15 5 0 9 -7 9 -15 0 -28 -35 -12 -41 19 -6 30 -29 32 -29 2 0 -29 -19 -36
-21 -8 -1 9 -1 20 0 25 0 4 -49 7 -109 7 -61 0 -110 -2 -110 -5z"/>
<path d="M694 5038 c2 -7 10 -34 16 -60 12 -46 13 -47 29 -27 11 14 15 34 13
60 -4 35 -7 39 -33 39 -18 0 -27 -5 -25 -12z"/>
<path d="M776 5036 c7 -19 33 -21 36 -3 0 6 4 -8 8 -33 l8 -45 -2 45 c-1 41
-3 45 -28 48 -22 3 -27 0 -22 -12z"/>
<path d="M842 5020 c0 -19 2 -27 5 -17 2 9 2 25 0 35 -3 9 -5 1 -5 -18z"/>
<path d="M1467 5018 c11 -94 33 -105 40 -20 4 49 3 52 -20 52 -21 0 -23 -4
-20 -32z"/>
<path d="M671 5024 c0 -11 3 -14 6 -6 3 7 2 16 -1 19 -3 4 -6 -2 -5 -13z"/>
<path d="M561 4894 c0 -11 3 -14 6 -6 3 7 2 16 -1 19 -3 4 -6 -2 -5 -13z"/>
<path d="M528 4873 c7 -3 16 -2 19 1 4 3 -2 6 -13 5 -11 0 -14 -3 -6 -6z"/>
<path d="M694 4845 c-7 -17 4 -37 17 -30 12 8 12 45 -1 45 -6 0 -13 -7 -16
-15z"/>
<path d="M388 4775 c5 -29 20 -33 29 -7 4 9 11 20 17 24 6 4 -3 8 -20 8 -28 0
-31 -3 -26 -25z"/>
<path d="M664 4768 c-25 -28 -30 -41 -26 -72 3 -22 9 -35 16 -33 14 5 9 49 -7
59 -23 15 13 9 44 -8 25 -13 33 -13 47 -2 24 19 32 31 32 51 0 14 -5 16 -26
11 -18 -5 -29 -1 -38 11 -11 16 -15 14 -42 -17z m36 -23 c0 -8 -4 -15 -10 -15
-5 0 -10 7 -10 15 0 8 5 15 10 15 6 0 10 -7 10 -15z"/>
<path d="M772 4688 c-18 -24 -33 -311 -21 -403 6 -46 7 -44 8 30 4 191 9 253
24 295 26 70 19 115 -11 78z"/>
<path d="M698 4634 c-5 -4 -8 -19 -8 -33 1 -23 2 -24 11 -8 11 19 9 53 -3 41z"/>
<path d="M250 4250 c0 -5 5 -10 11 -10 5 0 7 5 4 10 -3 6 -8 10 -11 10 -2 0
-4 -4 -4 -10z"/>
<path d="M101 4123 c1 -34 2 -35 9 -13 11 36 11 50 0 50 -5 0 -10 -17 -9 -37z"/>
<path d="M81 4054 c0 -11 3 -14 6 -6 3 7 2 16 -1 19 -3 4 -6 -2 -5 -13z"/>
<path d="M101 4054 c0 -11 3 -14 6 -6 3 7 2 16 -1 19 -3 4 -6 -2 -5 -13z"/>
<path d="M240 4024 c0 -8 -4 -12 -10 -9 -5 3 -10 1 -10 -4 0 -6 7 -11 15 -11
8 0 15 9 15 20 0 11 -2 20 -5 20 -3 0 -5 -7 -5 -16z"/>
<path d="M81 3994 c0 -11 3 -14 6 -6 3 7 2 16 -1 19 -3 4 -6 -2 -5 -13z"/>
<path d="M1683 3843 c9 -2 17 -8 17 -13 0 -5 -33 -7 -72 -5 -111 6 -210 -29
-195 -68 3 -8 2 -20 -3 -27 -6 -9 -10 -7 -15 9 -4 14 -15 21 -31 21 -14 0 -22
-4 -19 -10 3 -6 -4 -10 -17 -11 -22 0 -22 -1 -3 -9 11 -5 14 -9 6 -9 -8 -1
-34 -17 -57 -37 -33 -26 -44 -31 -44 -19 0 27 -17 7 -22 -25 -3 -16 -2 -28 0
-25 3 3 12 -5 20 -16 13 -19 12 -23 -12 -47 -14 -15 -26 -21 -26 -14 0 6 5 12
12 12 6 0 8 3 5 6 -8 8 -64 -51 -72 -76 -4 -11 -12 -17 -21 -13 -10 3 -12 0
-8 -10 3 -8 1 -18 -4 -21 -6 -3 -8 -15 -5 -27 4 -15 8 -17 14 -7 4 7 6 -9 3
-37 -3 -38 -2 -46 6 -32 17 27 29 20 32 -20 2 -30 -1 -40 -17 -48 -39 -20 -27
-85 17 -85 10 0 16 -4 13 -10 -3 -5 -16 -10 -28 -10 -15 0 -18 -3 -9 -9 7 -4
12 -12 11 -17 -5 -26 2 -64 11 -59 14 9 12 -9 -2 -23 -9 -9 -10 -17 -1 -30 8
-14 7 -23 -3 -36 -7 -11 -21 -41 -29 -67 -16 -46 -15 -50 9 -120 21 -62 23
-75 12 -89 -7 -8 -16 -28 -20 -44 -8 -32 13 -216 26 -231 4 -5 8 -18 8 -30 0
-15 11 -23 42 -33 59 -19 68 -29 68 -73 0 -21 4 -40 8 -43 5 -3 7 9 4 27 -3
25 -1 29 7 17 15 -21 14 -57 -1 -63 -10 -4 -10 -6 0 -6 6 -1 12 -8 12 -17 0
-8 -4 -12 -10 -9 -5 3 -10 1 -10 -4 0 -6 5 -11 10 -11 12 0 10 -79 -2 -86 -4
-3 -8 1 -9 8 0 7 -4 4 -9 -7 -5 -11 -9 -14 -9 -8 -1 9 -8 10 -27 3 -14 -6 -30
-7 -36 -4 -6 4 -8 2 -5 -3 4 -7 -29 -29 -81 -54 -48 -24 -89 -44 -92 -44 -3 0
-27 -11 -54 -23 -28 -13 -56 -20 -63 -18 -7 3 -13 1 -13 -4 0 -6 -7 -10 -15
-10 -18 0 -20 16 -2 23 10 4 9 6 0 6 -10 1 -13 31 -13 118 0 64 -3 113 -7 110
-4 -4 -5 -52 -4 -107 2 -100 -10 -135 -23 -65 -9 45 -24 46 -22 1 1 -19 -2
-32 -6 -30 -5 3 -8 14 -8 25 0 11 -4 17 -10 14 -6 -4 -10 18 -10 59 0 42 -4
66 -11 66 -8 0 -10 -26 -8 -77 3 -102 1 -125 -11 -118 -5 3 -10 32 -11 63 -1
40 -3 50 -8 32 -4 -14 -13 -25 -21 -25 -15 0 -16 -7 -23 -115 -2 -46 -6 -55
-22 -57 -19 -3 -19 -3 0 6 19 9 19 10 -2 10 -16 1 -20 6 -17 24 4 20 4 21 -5
2 -5 -11 -10 -33 -10 -49 -1 -24 -3 -28 -14 -17 -8 8 -12 57 -13 164 -1 192
-2 193 -14 181 -6 -6 -12 -65 -13 -132 -1 -67 -5 -122 -9 -122 -5 0 -8 -9 -8
-21 0 -11 4 -17 10 -14 5 3 10 -1 10 -10 0 -9 -4 -13 -10 -10 -5 3 -11 -4 -11
-17 -1 -15 -4 -10 -8 12 -3 19 -2 132 3 250 7 181 6 220 -6 250 l-15 35 -7
-90 c-3 -49 -11 -121 -17 -160 -6 -38 -11 -138 -12 -221 -2 -117 -5 -155 -17
-169 -8 -11 -10 -16 -4 -12 6 3 11 0 11 -7 0 -17 -26 -14 -37 3 -5 9 -10 10
-14 2 -4 -6 -4 -16 -1 -21 4 -6 0 -21 -8 -33 -15 -24 -12 -50 6 -41 7 3 4 -1
-6 -9 -10 -9 -18 -18 -17 -21 1 -4 -1 -12 -3 -19 -4 -9 -6 -9 -6 1 -1 17 -21
15 -21 -3 0 -8 -5 -15 -11 -15 -17 0 0 92 19 107 10 7 20 13 25 13 4 0 7 5 7
11 0 6 -5 7 -12 2 -7 -4 -20 -9 -29 -10 -25 -4 -30 52 -30 345 l0 261 -29 -1
c-17 -1 -30 -4 -30 -8 0 -3 -21 -17 -47 -30 -52 -25 -75 -45 -86 -72 -3 -10
-12 -18 -18 -18 -8 0 -8 4 1 15 17 21 1 19 -35 -5 -16 -11 -47 -25 -67 -30
l-38 -11 0 -1080 0 -1080 1224 2 c926 0 1226 3 1230 12 3 9 5 8 5 0 1 -17 611
-19 611 -2 0 5 5 7 11 4 5 -4 23 -9 38 -11 30 -5 41 12 41 64 0 12 4 22 9 22
4 0 7 -20 5 -45 l-4 -45 100 0 100 0 0 400 0 400 -24 6 c-19 4 -24 12 -24 35
1 15 5 26 10 23 5 -3 7 -12 4 -19 -5 -15 21 -42 31 -32 3 4 0 14 -8 24 -9 11
-10 14 -1 9 9 -6 12 31 12 171 0 129 -3 183 -12 192 -11 11 -10 12 1 6 12 -7
13 1 8 47 -8 65 -91 314 -112 335 -8 8 -15 19 -15 24 0 5 -13 9 -30 9 -20 0
-30 -5 -30 -15 0 -8 -4 -15 -10 -15 -5 0 -7 -7 -3 -16 4 -10 8 -12 13 -5 8 14
54 -162 47 -181 -3 -7 -6 -2 -6 12 -1 14 -6 32 -12 40 -8 11 -9 6 -4 -20 3
-19 9 -54 12 -78 4 -31 10 -42 19 -38 9 3 14 -2 14 -14 0 -11 5 -20 11 -20 6
0 9 7 5 15 -4 11 1 15 17 15 18 0 19 -2 7 -10 -12 -8 -13 -11 -1 -19 16 -10
-3 -26 -19 -16 -6 4 -10 -7 -10 -25 0 -25 4 -31 15 -26 8 3 15 1 15 -4 0 -9
-23 -15 -44 -11 -4 1 -5 -20 -2 -46 4 -26 9 -67 13 -90 4 -34 2 -43 -10 -43
-12 0 -14 -9 -11 -42 3 -36 1 -33 -10 17 -8 33 -17 90 -21 127 -5 46 -11 68
-20 68 -24 0 -37 100 -14 108 14 5 11 32 -3 30 -6 -2 -13 6 -15 17 -3 17 -2
18 7 5 14 -19 8 56 -9 110 l-10 35 2 -32 c2 -18 -1 -29 -5 -27 -8 5 -4 87 8
142 3 14 1 21 -5 18 -5 -4 -18 5 -29 19 -18 23 -22 24 -48 11 -16 -8 -40 -17
-54 -21 -25 -7 -25 -7 -3 9 11 9 33 20 47 26 14 5 26 14 26 20 0 7 -7 7 -21 0
-11 -7 -24 -9 -27 -5 -3 3 4 8 16 12 12 3 22 10 22 15 0 5 5 6 10 3 6 -3 10 1
10 10 0 11 -5 15 -14 12 -8 -3 -17 1 -20 9 -3 9 -1 12 4 9 6 -3 10 0 10 7 -1
18 -35 58 -50 58 -7 0 -10 7 -6 16 3 8 2 12 -4 9 -6 -3 -13 2 -16 12 -3 10
-10 26 -15 36 -14 26 6 21 56 -13 29 -20 42 -36 39 -45 -4 -8 -11 -12 -18 -8
-6 3 -7 2 -3 -2 11 -13 38 -15 31 -3 -4 7 -2 8 5 4 6 -4 9 -11 6 -15 -2 -5 3
-17 11 -27 9 -10 12 -12 8 -4 -7 13 -6 13 10 1 9 -8 15 -20 12 -28 -3 -7 -1
-14 4 -14 6 -1 14 -2 19 -3 17 -2 25 -16 10 -17 -8 0 -6 -4 6 -9 31 -13 45
-12 39 5 -4 8 -11 12 -17 8 -6 -3 -7 -1 -3 6 20 31 -116 170 -209 215 -29 13
-93 37 -141 52 -49 15 -94 31 -99 35 -11 8 -198 77 -284 105 -33 10 -47 11
-58 3 -11 -10 -12 -8 -7 7 6 16 2 15 -22 -6 -25 -22 -26 -22 -10 -2 11 12 16
25 13 28 -3 3 -43 19 -88 34 l-83 28 -16 54 c-8 30 -24 67 -34 83 -17 25 -18
34 -8 72 7 24 23 60 35 81 13 20 27 49 30 64 6 23 4 25 -14 21 -11 -3 -19 -12
-17 -21 2 -9 -13 -48 -32 -86 l-35 -71 -65 3 c-61 3 -98 11 -145 33 -11 6 -30
11 -43 12 -25 1 -25 1 -13 25 5 9 12 25 15 35 3 10 9 16 13 14 11 -6 109 9
156 24 61 20 40 56 -27 44 -26 -5 -33 -2 -43 20 -6 14 -8 27 -3 30 10 6 96 7
149 1 72 -8 107 28 64 66 -32 29 -124 78 -134 73 -5 -4 -9 -3 -9 2 0 14 14 29
34 36 13 5 17 3 13 -7 -4 -10 -1 -13 8 -10 21 8 25 31 9 45 -11 9 -18 9 -26 1
-15 -15 -31 -15 -22 0 4 7 3 8 -4 4 -7 -4 -20 1 -31 11 -18 17 -30 73 -35 165
0 14 -4 24 -8 21 -5 -2 -8 2 -8 10 0 10 7 13 19 10 16 -4 42 -42 86 -128 6
-11 26 -25 45 -31 33 -11 34 -12 10 -16 -21 -4 -22 -6 -8 -12 16 -7 73 5 168
38 43 14 70 63 70 127 0 25 7 54 15 65 8 10 15 24 15 31 0 15 -55 33 -99 32
l-36 -1 32 -11 c48 -18 48 -24 4 -47 -23 -11 -41 -16 -41 -10 0 5 -3 9 -7 8
-5 -2 -18 4 -31 13 -18 13 -20 18 -9 27 14 12 31 5 40 -18 3 -9 6 -4 6 13 1
18 -4 27 -14 27 -8 0 -15 6 -15 14 0 8 -8 13 -17 11 -10 -2 -53 -9 -95 -16
-43 -6 -83 -18 -89 -25 -16 -19 -53 -17 -129 6 -36 11 -94 20 -130 20 -82 0
-101 10 -71 36 68 59 81 76 78 107 -1 18 -7 37 -14 42 -7 6 -13 21 -14 35 -4
53 -1 57 49 58 26 1 84 4 130 8 51 4 92 2 105 -4 12 -6 30 -13 39 -16 10 -3
30 -23 45 -45 16 -22 38 -45 51 -52 12 -7 22 -19 22 -26 0 -8 4 -12 9 -9 8 5
48 -111 43 -126 -1 -5 4 -8 12 -8 15 0 26 49 26 130 1 30 5 75 9 100 7 33 6
47 -4 55 -10 7 -12 21 -5 55 4 25 5 50 0 55 -5 6 -10 24 -12 40 -2 24 -7 29
-24 27 -17 -2 -23 4 -28 28 -3 17 -10 29 -15 26 -5 -3 -11 1 -15 9 -3 8 -16
15 -30 15 -34 0 -56 10 -56 25 0 14 -29 29 -38 20 -3 -3 -1 -5 5 -5 5 0 10 -7
10 -15 0 -22 -37 -18 -58 6 -10 11 -23 18 -29 14 -6 -4 -17 -1 -26 5 -8 7 -50
14 -97 15 -78 2 -84 4 -114 34 -17 17 -40 30 -50 30 -16 -1 -17 -2 0 -6z
m-368 -189 c-9 -9 -19 -13 -23 -10 -3 4 0 11 8 16 24 15 33 11 15 -6z m933
-134 c-1 -35 -18 -41 -18 -7 0 21 7 37 16 37 1 0 2 -13 2 -30z m-1055 -35 c-3
-9 -8 -14 -10 -11 -3 3 -2 9 2 15 9 16 15 13 8 -4z m517 -375 c0 -5 -18 -10
-40 -10 -22 0 -40 5 -40 10 0 6 18 10 40 10 22 0 40 -4 40 -10z m330 6 c0 -3
-4 -8 -10 -11 -5 -3 -10 -1 -10 4 0 6 5 11 10 11 6 0 10 -2 10 -4z m290 -70
c0 -66 -15 -95 -57 -113 -49 -20 -145 -21 -175 -1 -13 8 -28 29 -34 45 l-11
30 29 -15 c18 -9 45 -12 68 -9 37 5 90 41 90 61 0 9 60 42 83 45 4 1 7 -19 7
-43z m-210 9 c0 -17 -2 -18 -25 -9 -13 5 -14 8 -3 15 19 13 28 11 28 -6z
m-400 -20 c0 -8 -4 -15 -9 -15 -13 0 -22 16 -14 24 11 11 23 6 23 -9z m-74
-97 c-10 17 70 15 109 -3 25 -12 26 -14 5 -9 -17 4 -22 3 -15 -4 6 -6 21 -12
35 -15 14 -2 -4 -5 -40 -5 -67 -2 -110 12 -118 38 -5 13 -3 13 13 0 11 -9 16
-10 11 -2z m-76 -48 c0 -5 -4 -10 -10 -10 -5 0 -10 5 -10 10 0 6 5 10 10 10 6
0 10 -4 10 -10z m40 -42 c0 -4 -9 -8 -20 -8 -21 0 -24 8 -13 36 6 16 7 16 20
-2 7 -10 13 -21 13 -26z m85 33 c30 -7 30 -7 5 -12 -14 -3 -36 1 -50 8 -21 11
-22 13 -5 12 11 -1 34 -4 50 -8z m65 -31 c51 0 80 -4 71 -9 -10 -6 -11 -13 -2
-29 15 -28 -3 -77 -25 -68 -8 3 -17 -1 -20 -9 -4 -8 -10 -15 -16 -15 -5 0 -6
6 -2 13 6 9 4 9 -7 1 -20 -16 -59 -24 -59 -12 0 5 -9 6 -20 3 -12 -4 -20 -2
-20 5 0 6 -12 22 -27 36 -25 23 -25 25 -9 43 10 11 14 25 10 36 -6 15 -4 17
17 12 13 -4 62 -7 109 -7z m289 -139 c10 -6 10 -10 1 -16 -15 -10 -62 3 -55
15 8 12 35 13 54 1z m71 -31 c0 -5 -2 -10 -4 -10 -3 0 -8 5 -11 10 -3 6 -1 10
4 10 6 0 11 -4 11 -10z m-271 -74 c8 -10 9 -16 1 -21 -5 -3 -10 1 -10 9 0 8
-8 17 -17 19 -15 4 -15 5 -2 6 9 0 22 -5 28 -13z m276 -291 c-7 -52 -58 -181
-80 -205 -8 -9 -15 -20 -15 -24 0 -13 -83 -96 -97 -96 -7 0 -13 -4 -13 -10 0
-5 -19 -10 -43 -10 -31 0 -47 6 -61 21 -18 22 -18 22 15 16 l34 -6 -30 14
c-17 8 -23 15 -15 16 8 1 -3 5 -25 8 l-40 7 60 13 c64 14 125 40 125 53 0 4
-5 8 -11 8 -6 0 9 18 33 41 23 22 36 38 28 34 -8 -4 9 14 38 40 28 26 62 65
74 86 12 22 24 39 26 39 2 0 1 -20 -3 -45z m-788 -57 c-3 -8 -6 -5 -6 6 -1 11
2 17 5 13 3 -3 4 -12 1 -19z m853 -47 c5 -19 5 -31 -1 -31 -5 0 -9 5 -9 10 0
6 -10 10 -22 11 -22 0 -22 1 -3 9 11 5 14 9 6 9 -11 1 -11 4 -1 16 15 19 18
17 30 -24z m-2010 -21 c0 -5 -5 -10 -11 -10 -5 0 -7 5 -4 10 3 6 8 10 11 10 2
0 4 -4 4 -10z m-13 -51 c1 -19 1 -20 -4 -4 -3 11 -10 24 -17 28 -7 6 -6 7 4 4
8 -2 16 -14 17 -28z m2099 -24 c15 -14 30 -25 34 -25 4 0 17 -9 30 -20 30 -26
14 -26 -25 0 -16 11 -38 20 -47 20 -11 0 -18 8 -18 20 0 11 -5 20 -11 20 -8 0
-10 -16 -5 -50 4 -32 3 -50 -4 -50 -6 0 -10 24 -10 55 0 63 13 70 56 30z
m-826 -95 c0 -5 -2 -10 -4 -10 -3 0 -8 5 -11 10 -3 6 -1 10 4 10 6 0 11 -4 11
-10z m21 -33 c-8 -8 -11 -3 -11 19 1 25 2 27 11 11 8 -14 8 -22 0 -30z m652
27 c-7 -3 -9 -13 -6 -22 4 -14 3 -15 -6 -2 -8 12 -12 10 -20 -10 -5 -14 -10
-19 -10 -11 -1 18 28 51 43 50 7 0 7 -2 -1 -5z m247 -31 c0 -7 -4 -13 -10 -13
-5 0 -10 12 -10 28 0 21 2 24 10 12 5 -8 10 -21 10 -27z m-923 -15 c-3 -8 -6
-5 -6 6 -1 11 2 17 5 13 3 -3 4 -12 1 -19z m737 10 c7 -7 14 -17 17 -23 2 -5
7 -9 12 -7 4 1 7 -10 7 -25 0 -14 3 -23 7 -19 9 9 30 -54 25 -76 -7 -28 -22
-10 -22 26 0 32 -48 97 -79 107 -8 3 -11 10 -7 17 9 15 24 15 40 0z m511 2
c-8 -13 1 -13 26 0 14 8 19 7 19 -1 0 -7 9 -9 23 -6 20 6 21 5 4 -7 -13 -10
-15 -15 -5 -18 7 -3 -2 -5 -19 -5 -18 0 -33 4 -33 8 0 5 -7 5 -17 2 -11 -4
-14 -3 -9 5 4 7 2 12 -4 12 -6 0 -8 5 -5 10 3 6 11 10 16 10 6 0 7 -4 4 -10z
m-1825 -10 c0 -5 -4 -10 -10 -10 -5 0 -10 5 -10 10 0 6 5 10 10 10 6 0 10 -4
10 -10z m1540 -66 c0 -8 6 -14 14 -14 18 0 48 -72 34 -81 -7 -4 -6 -9 1 -13 6
-4 8 -12 5 -18 -4 -5 -14 5 -22 22 -14 28 -17 30 -23 14 -6 -17 -7 -16 -13 6
-3 14 -8 41 -10 60 -2 19 -7 51 -11 70 l-6 35 15 -34 c9 -18 16 -40 16 -47z
m-914 43 c-3 -13 1 -32 9 -43 10 -15 10 -21 2 -21 -7 0 -20 -4 -30 -8 -13 -6
-16 -3 -11 9 3 9 1 22 -5 30 -6 7 -8 21 -5 31 5 13 9 14 15 3 7 -10 9 -9 9 5
0 9 5 17 11 17 7 0 9 -9 5 -23z m572 -2 c-3 -3 -9 2 -12 12 -6 14 -5 15 5 6 7
-7 10 -15 7 -18z m-180 -1 c6 -10 6 -33 0 -56 -4 -22 -6 -43 -3 -47 2 -5 -9
-14 -25 -21 -20 -8 -30 -20 -30 -34 0 -11 -4 -27 -9 -34 -6 -10 -10 -8 -14 8
-3 14 -10 19 -17 15 -9 -6 -9 -9 -1 -14 8 -5 7 -19 -6 -47 -12 -27 -18 -34
-21 -21 -4 21 -22 23 -22 2 0 -8 -6 -15 -12 -16 -10 0 -10 -2 0 -6 6 -2 12 -9
12 -15 0 -7 -5 -6 -14 1 -14 12 -10 57 5 67 19 11 8 34 -16 34 -13 0 -29 8
-35 18 -11 16 -11 16 -6 0 3 -10 -2 -21 -10 -26 -14 -8 -14 -12 -3 -30 8 -12
18 -22 23 -22 6 0 5 5 -2 12 -7 7 -12 16 -12 21 0 5 7 2 15 -7 18 -18 19 -33
3 -39 -10 -4 -9 -8 2 -16 8 -6 11 -11 7 -11 -10 0 -94 56 -125 83 -22 20 -22
20 -36 1 -8 -10 -12 -21 -9 -24 3 -3 8 1 10 8 3 6 9 12 14 12 5 0 2 -11 -7
-24 l-16 -25 -54 54 c-30 30 -53 58 -52 62 1 5 -3 18 -11 31 -7 13 -10 28 -7
35 2 7 5 5 5 -5 1 -9 6 -20 13 -24 8 -5 9 -2 5 10 -5 13 -3 15 12 7 10 -6 21
-7 25 -4 3 3 6 -2 6 -13 1 -17 2 -16 13 4 17 29 29 18 16 -16 -7 -18 -6 -27 2
-33 8 -4 10 -19 6 -40 -7 -34 -6 -34 8 -9 8 14 17 47 21 74 6 44 8 47 20 31
14 -18 14 -18 14 1 0 13 3 15 8 7 13 -20 82 -5 82 18 0 11 5 19 10 19 6 0 10
7 8 16 -3 19 10 23 104 27 37 1 70 6 74 10 12 11 22 8 32 -9z m-884 -10 c3 -8
2 -12 -4 -9 -6 3 -10 10 -10 16 0 14 7 11 14 -7z m-264 -34 c8 -5 11 -10 5
-10 -5 0 -17 5 -25 10 -8 5 -10 10 -5 10 6 0 17 -5 25 -10z m50 0 c-8 -5 -19
-10 -25 -10 -5 0 -3 5 5 10 8 5 20 10 25 10 6 0 3 -5 -5 -10z m257 -22 c-3 -8
-6 -5 -6 6 -1 11 2 17 5 13 3 -3 4 -12 1 -19z m1757 -4 c9 -24 7 -36 -6 -28
-6 4 -4 -3 5 -17 20 -28 23 -85 5 -92 -10 -4 -10 -8 -2 -14 9 -6 8 -12 -2 -21
-12 -11 -16 -9 -23 10 -9 22 -10 22 -10 2 -1 -12 6 -41 14 -64 19 -53 19 -73
0 -40 -7 14 -19 56 -25 93 -9 49 -16 67 -25 63 -18 -6 -25 16 -24 72 1 45 1
46 9 14 8 -35 20 -54 20 -33 0 7 6 11 14 8 17 -7 27 14 21 43 -5 24 20 28 29
4z m-807 -25 c-7 -17 -25 -40 -41 -52 -16 -11 -25 -14 -20 -6 5 8 20 31 33 52
28 45 44 49 28 6z m110 9 c-3 -8 -6 -5 -6 6 -1 11 2 17 5 13 3 -3 4 -12 1 -19z
m30 -10 c-3 -7 -5 -2 -5 12 0 14 2 19 5 13 2 -7 2 -19 0 -25z m216 -45 c-8
-19 -17 -16 -30 12 -7 17 -8 23 0 18 6 -4 8 0 4 9 -3 9 -3 19 1 23 9 9 31 -46
25 -62z m37 47 c0 -5 -5 -10 -11 -10 -5 0 -7 5 -4 10 3 6 8 10 11 10 2 0 4 -4
4 -10z m209 -68 c0 -15 -3 -21 -6 -14 -2 6 -10 12 -17 12 -6 0 -13 11 -14 25
-2 23 0 24 18 15 13 -7 20 -20 19 -38z m-1569 8 c0 -5 -9 -24 -20 -42 -11 -18
-20 -27 -20 -19 0 11 -4 9 -15 -5 -8 -10 -15 -14 -15 -8 0 21 22 74 32 74 5 0
6 -4 3 -10 -3 -5 -1 -10 4 -10 6 0 11 7 11 15 0 8 5 15 10 15 6 0 10 -4 10
-10z m984 -33 c-12 -7 -13 -12 -3 -23 7 -9 8 -14 1 -14 -6 0 -14 4 -17 10 -3
5 -21 -5 -39 -23 -22 -21 -29 -35 -22 -40 7 -5 2 -7 -11 -4 -16 4 -23 0 -23
-10 0 -9 -6 -13 -14 -10 -8 3 -17 1 -20 -6 -2 -7 -5 -5 -5 4 -1 10 10 36 23
60 14 24 23 46 20 51 -3 4 -2 8 3 9 43 4 55 8 75 21 21 14 24 14 35 -1 9 -13
8 -18 -3 -24z m473 21 c-3 -8 -6 -5 -6 6 -1 11 2 17 5 13 3 -3 4 -12 1 -19z
m-1527 -16 c0 -10 -7 -27 -15 -38 -13 -17 -14 -16 -5 16 6 19 10 36 10 37 0 2
2 3 5 3 3 0 5 -8 5 -18z m1470 8 c0 -5 -5 -10 -11 -10 -5 0 -7 5 -4 10 3 6 8
10 11 10 2 0 4 -4 4 -10z m-1789 -67 c-9 -16 -10 -16 -11 4 0 12 3 30 7 40 7
16 8 16 11 -4 2 -12 -1 -30 -7 -40z m-19 16 c-3 -19 -7 -26 -12 -19 -8 14 -2
50 9 50 4 0 5 -14 3 -31z m1775 -11 c-3 -8 -6 -5 -6 6 -1 11 2 17 5 13 3 -3 4
-12 1 -19z m-1927 -18 c-6 -11 -18 -20 -28 -19 -14 0 -14 2 -2 6 8 3 19 12 23
19 13 22 19 16 7 -6z m1591 -225 c0 -125 -3 -230 -6 -233 -3 -3 -5 43 -5 101
0 65 -4 107 -10 107 -6 0 -10 -38 -10 -95 0 -57 -4 -95 -10 -95 -5 0 -10 7
-10 15 0 8 -4 15 -10 15 -5 0 -10 -25 -10 -55 0 -83 -16 -66 -18 20 -1 45 2
75 8 75 5 0 10 -7 10 -15 0 -8 5 -15 11 -15 5 0 8 4 4 9 -3 5 -1 12 4 15 10 7
9 66 -2 84 -5 7 -4 19 3 27 9 11 4 13 -31 12 l-43 -2 1 38 c2 75 2 75 22 70
15 -4 18 1 18 29 0 72 3 108 11 108 4 0 6 -31 4 -68 l-4 -69 31 0 31 0 0 80
c0 44 2 78 6 75 3 -3 5 -108 5 -233z m-499 207 c-10 -3 -10 -7 0 -20 12 -15
11 -15 -4 -4 -18 14 -13 47 5 35 8 -5 7 -8 -1 -11z m467 -47 c0 -36 -4 -65
-10 -65 -5 0 -9 29 -9 65 0 36 4 65 9 65 6 0 10 -29 10 -65z m381 -7 c0 -76
-5 -72 -14 10 -4 41 -2 61 4 57 6 -3 10 -34 10 -67z m39 -20 c1 -54 3 -58 24
-55 13 1 21 -3 20 -10 -2 -7 2 -13 7 -13 6 0 11 8 11 18 1 15 2 15 6 -1 3 -12
11 -17 23 -14 10 2 24 1 31 -4 10 -6 4 -9 -17 -9 -29 0 -31 -2 -28 -30 2 -16
-1 -30 -6 -30 -6 0 -10 8 -11 18 -1 11 -3 9 -8 -7 -3 -13 -3 -56 1 -95 4 -39
7 -104 7 -145 1 -61 4 -72 16 -67 11 4 15 -2 15 -20 0 -23 3 -25 24 -20 14 3
28 2 31 -4 4 -6 -7 -10 -25 -10 -19 0 -30 -5 -29 -12 4 -37 -2 -57 -16 -52
-10 4 -15 0 -15 -11 0 -11 5 -15 15 -11 9 3 15 0 15 -9 0 -9 -6 -12 -17 -8
-14 6 -16 -2 -11 -73 6 -89 -4 -142 -16 -87 -4 18 -5 37 -2 42 10 15 -5 121
-17 121 -6 0 -7 -17 -4 -41 3 -26 2 -38 -4 -32 -5 5 -11 33 -12 61 -1 30 -7
52 -13 52 -7 0 -10 -18 -9 -45 0 -25 -2 -42 -7 -37 -4 4 -10 114 -13 244 -3
130 -9 247 -13 260 -5 13 -8 30 -7 38 1 8 3 24 4 35 2 19 2 19 15 2 14 -18 14
-18 18 0 2 10 1 45 -3 78 -3 33 -4 64 -1 69 10 17 21 -28 21 -86z m23 67 c3
-13 1 -22 -3 -19 -9 5 -13 44 -5 44 2 0 6 -11 8 -25z m-691 -8 c-10 -9 -11 -8
-5 6 3 10 9 15 12 12 3 -3 0 -11 -7 -18z m1249 -11 c0 -2 -7 -7 -16 -10 -8 -3
-12 -2 -9 4 6 10 25 14 25 6z m-1358 -38 c13 -13 19 -20 14 -15 -18 13 -29 7
-15 -10 12 -14 9 -13 -16 2 -39 25 -44 30 -21 21 16 -5 17 -4 6 9 -20 24 6 18
32 -7z m-1192 2 c8 -5 11 -10 5 -10 -5 0 -17 5 -25 10 -8 5 -10 10 -5 10 6 0
17 -5 25 -10z m2623 -1 c-7 -7 -35 -21 -64 -33 -29 -12 -54 -27 -57 -34 -3
-11 0 -12 16 -3 31 17 34 13 9 -11 -21 -22 -22 -22 -30 -4 -10 24 14 51 67 76
48 22 76 26 59 9z m117 1 c0 -5 -2 -10 -4 -10 -3 0 -8 5 -11 10 -3 6 -1 10 4
10 6 0 11 -4 11 -10z m-731 -42 c1 -5 -3 -8 -9 -8 -5 0 -10 12 -9 28 0 24 1
25 9 7 5 -11 9 -23 9 -27z m-2013 21 c3 -6 3 -14 -2 -18 -5 -3 -9 -12 -10 -18
-2 -29 -5 -33 -18 -33 -8 0 -18 5 -22 12 -5 8 -2 9 9 5 20 -7 23 8 5 17 -10 5
-10 7 -1 12 7 3 9 12 6 20 -6 17 22 20 33 3z m2620 -14 c-11 -8 -25 -15 -30
-15 -6 1 0 7 14 15 32 19 40 18 16 0z m-2696 1 c0 -3 -4 -8 -10 -11 -5 -3 -10
-1 -10 4 0 6 5 11 10 11 6 0 10 -2 10 -4z m940 -6 c0 -5 -5 -10 -11 -10 -5 0
-7 5 -4 10 3 6 8 10 11 10 2 0 4 -4 4 -10z m-400 -8 c0 -13 -12 -22 -22 -16
-10 6 -1 24 13 24 5 0 9 -4 9 -8z m441 -47 c6 -17 8 -17 8 -2 1 9 5 17 9 17 6
0 7 -27 3 -87 -1 -7 -7 -13 -15 -13 -17 0 -25 -44 -29 -169 -2 -53 -7 -86 -14
-88 -8 -3 -11 11 -9 44 4 55 -11 110 -15 58 -2 -16 -3 -45 -3 -62 -1 -18 -5
-33 -11 -33 -5 0 -10 3 -10 8 0 4 4 59 9 122 9 127 9 120 -1 120 -5 1 -11 -16
-14 -37 -5 -26 -7 -10 -7 47 0 47 2 87 4 90 1 3 21 5 45 5 33 0 44 -4 50 -20z
m862 -5 c7 0 6 -4 -3 -10 -13 -9 -13 -11 0 -20 11 -7 3 -9 -30 -8 -29 1 -35 2
-17 5 53 8 26 23 -45 25 l-73 2 73 3 c59 3 72 7 73 21 1 16 2 16 6 0 2 -10 10
-18 16 -18z m707 9 c0 -6 9 -19 20 -31 11 -12 20 -30 20 -41 0 -22 -21 -45
-36 -40 -7 2 -14 -8 -18 -22 -4 -14 -11 -25 -16 -25 -14 0 -32 38 -21 45 6 3
6 18 -1 37 -9 24 -8 33 0 36 7 2 12 10 12 18 0 9 5 12 12 8 7 -5 9 0 6 14 -4
15 -2 19 8 15 8 -3 14 -9 14 -14z m-1999 -4 c8 6 10 -5 6 -36 -3 -24 -6 -47
-6 -51 -1 -4 -17 -10 -37 -14 -24 -4 -34 -11 -30 -20 3 -7 1 -16 -4 -19 -6 -4
-10 3 -10 14 0 38 -20 22 -21 -16 l-2 -38 -6 40 c-8 52 -2 85 15 85 8 0 13 3
13 8 -6 39 31 71 58 50 7 -5 17 -7 24 -3z m632 8 c-7 -2 -19 -2 -25 0 -7 3 -2
5 12 5 14 0 19 -2 13 -5z m243 -2 c-4 -5 -2 -11 2 -13 11 -4 3 -78 -9 -78 -5
0 -9 7 -9 15 0 8 -6 15 -14 15 -15 0 -25 27 -19 48 7 20 26 13 20 -8 -3 -11
-1 -20 4 -20 5 0 9 11 9 25 0 14 5 25 11 25 5 0 8 -4 5 -9z m818 0 c4 -5 -3
-7 -14 -4 -23 6 -26 13 -6 13 8 0 17 -4 20 -9z m188 -66 c2 -22 8 -43 13 -47
6 -4 0 -8 -13 -8 -13 0 -21 4 -18 9 4 5 2 20 -3 34 -5 13 -12 39 -15 57 -5 33
-4 33 14 14 12 -11 21 -36 22 -59z m-922 50 c0 -8 -4 -15 -10 -15 -5 0 -10 7
-10 15 0 8 5 15 10 15 6 0 10 -7 10 -15z m417 9 c-3 -3 -12 -4 -19 -1 -8 3 -5
6 6 6 11 1 17 -2 13 -5z m46 -14 c7 -26 0 -29 -53 -20 l-45 7 37 2 c29 1 36 4
32 16 -4 9 0 15 9 15 8 0 17 -9 20 -20z m-1118 -10 c-2 -28 -11 -34 -32 -21
-16 9 -16 10 -1 11 11 0 15 5 12 15 -4 9 0 15 8 15 8 0 14 -9 13 -20z m335 4
c0 -2 -9 -4 -21 -4 -11 0 -18 4 -14 10 5 8 35 3 35 -6z m-467 -1 c-13 -2 -33
-2 -45 0 -13 2 -3 4 22 4 25 0 35 -2 23 -4z m334 1 c-3 -3 -12 -4 -19 -1 -8 3
-5 6 6 6 11 1 17 -2 13 -5z m1129 -7 c4 -4 -5 -7 -19 -7 -15 0 -27 4 -27 10 0
11 35 8 46 -3z m74 3 c0 -5 -4 -10 -10 -10 -5 0 -10 5 -10 10 0 6 5 10 10 10
6 0 10 -4 10 -10z m-1530 -22 c0 -4 -17 -8 -37 -7 -30 0 -34 2 -18 9 24 10 55
9 55 -2z m460 -8 c0 -5 -9 -6 -20 -3 -11 3 -17 9 -15 14 7 10 35 1 35 -11z
m320 10 c0 -5 -4 -10 -10 -10 -5 0 -10 5 -10 10 0 6 5 10 10 10 6 0 10 -4 10
-10z m233 3 c-13 -2 -33 -2 -45 0 -13 2 -3 4 22 4 25 0 35 -2 23 -4z m590 0
c-7 -2 -19 -2 -25 0 -7 3 -2 5 12 5 14 0 19 -2 13 -5z m43 -11 c1 -7 2 -13 4
-14 8 -10 5 -48 -4 -45 -6 3 -10 9 -9 16 2 6 -9 13 -25 17 -43 9 -50 14 -14
11 28 -3 31 -1 26 16 -4 14 -2 18 7 15 8 -3 15 -10 15 -16z m481 -4 c-3 -8 -6
-5 -6 6 -1 11 2 17 5 13 3 -3 4 -12 1 -19z m-1804 5 c-7 -2 -19 -2 -25 0 -7 3
-2 5 12 5 14 0 19 -2 13 -5z m777 -13 c0 -5 -5 -10 -11 -10 -5 0 -7 5 -4 10 3
6 8 10 11 10 2 0 4 -4 4 -10z m147 4 c-3 -3 -12 -4 -19 -1 -8 3 -5 6 6 6 11 1
17 -2 13 -5z m210 0 c-3 -3 -12 -4 -19 -1 -8 3 -5 6 6 6 11 1 17 -2 13 -5z
m-474 -11 c-7 -2 -19 -2 -25 0 -7 3 -2 5 12 5 14 0 19 -2 13 -5z m-530 -10
c-7 -2 -19 -2 -25 0 -7 3 -2 5 12 5 14 0 19 -2 13 -5z m-923 -7 c0 -3 -4 -8
-10 -11 -5 -3 -10 -1 -10 4 0 6 5 11 10 11 6 0 10 -2 10 -4z m1870 -6 c0 -5
-2 -10 -4 -10 -3 0 -8 5 -11 10 -3 6 -1 10 4 10 6 0 11 -4 11 -10z m-578 -40
c-6 -41 -12 -38 -12 6 0 19 4 33 8 30 5 -3 7 -19 4 -36z m38 19 c0 -11 -4 -17
-10 -14 -5 3 -10 13 -10 21 0 8 5 14 10 14 6 0 10 -9 10 -21z m-590 1 c0 -5
-4 -10 -10 -10 -5 0 -10 5 -10 10 0 6 5 10 10 10 6 0 10 -4 10 -10z m-740 -10
c0 -5 -5 -10 -11 -10 -5 0 -7 5 -4 10 3 6 8 10 11 10 2 0 4 -4 4 -10z m1867
-97 c-2 -21 -4 -6 -4 32 0 39 2 55 4 38 2 -18 2 -50 0 -70z m453 90 c0 -5 -5
-15 -10 -23 -8 -12 -10 -11 -10 8 0 12 5 22 10 22 6 0 10 -3 10 -7z m267 -40
c-3 -10 -5 -4 -5 12 0 17 2 24 5 18 2 -7 2 -21 0 -30z m-1458 -98 c-5 -12 -7
10 -7 55 l1 75 7 -55 c4 -30 3 -64 -1 -75z m-402 83 c-3 -7 -5 -2 -5 12 0 14
2 19 5 13 2 -7 2 -19 0 -25z m-97 18 c0 -3 -4 -8 -10 -11 -5 -3 -10 -1 -10 4
0 6 5 11 10 11 6 0 10 -2 10 -4z m-9 -99 c-4 -87 -11 -85 -11 3 0 40 3 70 7
67 3 -4 5 -35 4 -70z m1679 53 c0 -11 -4 -20 -9 -20 -5 0 -7 9 -4 20 3 11 7
20 9 20 2 0 4 -9 4 -20z m-1573 -27 c-3 -10 -5 -4 -5 12 0 17 2 24 5 18 2 -7
2 -21 0 -30z m441 -2 c1 -16 -2 -32 -8 -36 -6 -4 -10 10 -10 35 0 47 14 48 18
1z m132 8 c0 -11 -4 -17 -10 -14 -5 3 -10 15 -10 26 0 11 5 17 10 14 6 -3 10
-15 10 -26z m-1050 -15 c0 -21 -4 -33 -10 -29 -17 10 -11 65 7 65 2 0 3 -16 3
-36z m-33 6 c1 -11 -2 -20 -8 -20 -10 0 -12 23 -2 33 9 9 9 10 10 -13z m1962
-48 c0 -24 -1 -25 -9 -7 -12 28 -12 47 0 40 6 -3 10 -18 9 -33z m231 28 c0 -5
-2 -10 -4 -10 -3 0 -8 5 -11 10 -3 6 -1 10 4 10 6 0 11 -4 11 -10z m80 0 c0
-5 -15 -10 -32 -9 -31 1 -32 1 -8 9 35 11 40 11 40 0z m215 0 c3 -5 2 -10 -4
-10 -5 0 -13 5 -16 10 -3 6 -2 10 4 10 5 0 13 -4 16 -10z m-65 -10 c0 -5 -4
-10 -10 -10 -5 0 -10 5 -10 10 0 6 5 10 10 10 6 0 10 -4 10 -10z m-433 -77
c-2 -16 -4 -3 -4 27 0 30 2 43 4 28 2 -16 2 -40 0 -55z m-2460 32 c-5 -28 -2
-35 10 -35 9 0 14 -3 10 -6 -3 -3 -19 -3 -35 1 -24 5 -29 10 -24 27 3 14 1 19
-6 14 -7 -4 -12 -2 -12 5 0 6 8 9 20 6 11 -3 22 -1 25 3 3 5 -3 11 -12 13 -13
3 -11 5 6 6 22 1 23 -2 18 -34z m2753 25 c0 -5 -7 -10 -16 -10 -8 0 -12 5 -9
10 3 6 10 10 16 10 5 0 9 -4 9 -10z m-1103 -37 c-3 -10 -5 -4 -5 12 0 17 2 24
5 18 2 -7 2 -21 0 -30z m480 5 c-3 -8 -6 -5 -6 6 -1 11 2 17 5 13 3 -3 4 -12
1 -19z m-507 -3 c0 -8 -4 -15 -10 -15 -5 0 -10 7 -10 15 0 8 5 15 10 15 6 0
10 -7 10 -15z m-233 -27 c-3 -7 -5 -2 -5 12 0 14 2 19 5 13 2 -7 2 -19 0 -25z
m33 17 c0 -8 -4 -15 -10 -15 -5 0 -10 7 -10 15 0 8 5 15 10 15 6 0 10 -7 10
-15z m-1480 -15 c0 -11 -4 -20 -9 -20 -5 0 -7 9 -4 20 3 11 7 20 9 20 2 0 4
-9 4 -20z m1011 -25 c7 -18 8 -18 8 5 1 16 4 20 9 13 7 -11 7 -29 3 -104 -1
-12 -10 -16 -36 -13 -34 2 -35 1 -36 -34 -1 -20 -1 -44 0 -52 2 -13 1 -13 -9
0 -6 8 -9 30 -8 49 2 21 -2 36 -10 39 -8 2 -12 -12 -12 -49 0 -89 -9 -48 -13
59 -3 56 -3 103 -2 104 2 2 25 3 51 3 38 0 49 -4 55 -20z m680 -9 c1 -19 2
-19 9 4 7 22 8 22 11 5 9 -72 1 -131 -12 -85 -6 22 -7 23 -8 4 -1 -18 -7 -22
-36 -22 -28 0 -35 4 -35 19 0 12 -5 16 -15 13 -12 -5 -15 2 -15 34 0 40 19 71
21 35 1 -16 2 -16 6 -1 4 17 37 27 61 20 6 -2 12 -14 13 -26z m212 27 c-7 -2
-19 -2 -25 0 -7 3 -2 5 12 5 14 0 19 -2 13 -5z m137 -3 c0 -5 -4 -10 -10 -10
-5 0 -10 5 -10 10 0 6 5 10 10 10 6 0 10 -4 10 -10z m-1990 -21 c0 -11 -3 -11
-24 -3 -23 9 -20 23 4 17 11 -3 20 -9 20 -14z m1401 -11 l0 -23 10 23 c14 37
26 18 27 -43 0 -42 -3 -55 -15 -55 -9 0 -13 6 -9 15 3 8 1 15 -4 15 -6 0 -10
-7 -10 -15 0 -8 -4 -15 -9 -15 -4 0 -9 27 -10 60 -1 36 3 60 9 60 5 0 10 -10
11 -22z m796 16 c-3 -3 -12 -4 -19 -1 -8 3 -5 6 6 6 11 1 17 -2 13 -5z m68
-12 c-3 -3 -11 0 -18 7 -9 10 -8 11 6 5 10 -3 15 -9 12 -12z m295 8 c0 -5 -2
-10 -4 -10 -3 0 -8 5 -11 10 -3 6 -1 10 4 10 6 0 11 -4 11 -10z m-1433 -6 c-3
-3 -12 -4 -19 -1 -8 3 -5 6 6 6 11 1 17 -2 13 -5z m43 -4 c13 -8 13 -10 -2
-10 -9 0 -20 5 -23 10 -8 13 5 13 25 0z m187 4 c-3 -3 -12 -4 -19 -1 -8 3 -5
6 6 6 11 1 17 -2 13 -5z m503 -3 c0 -6 -19 -9 -41 -9 -27 0 -37 3 -28 9 19 12
69 11 69 0z m127 -5 c-3 -7 -1 -18 5 -24 11 -11 -6 -27 -21 -18 -15 10 -10 56
6 56 9 0 13 -6 10 -14z m320 8 c-3 -3 -12 -4 -19 -1 -8 3 -5 6 6 6 11 1 17 -2
13 -5z m236 -31 c7 -9 5 -13 -6 -13 -8 0 -17 9 -20 19 -5 22 5 40 12 19 2 -7
8 -19 14 -25z m-2005 20 c-10 -2 -18 -9 -18 -15 0 -5 7 -8 15 -4 8 3 15 1 15
-4 0 -6 -6 -10 -14 -10 -11 0 -13 -9 -9 -35 4 -23 2 -35 -6 -35 -6 0 -11 7
-11 15 0 9 -6 12 -15 9 -12 -5 -15 3 -15 40 l0 46 38 -1 c20 -1 29 -3 20 -6z
m152 -3 c0 -5 -5 -10 -11 -10 -5 0 -7 5 -4 10 3 6 8 10 11 10 2 0 4 -4 4 -10z
m136 -15 c2 -32 -12 -32 -18 0 -3 15 -1 25 6 25 6 0 12 -11 12 -25z m219 5 c8
-13 -5 -13 -25 0 -13 8 -13 10 2 10 9 0 20 -4 23 -10z m309 -18 c0 -33 -18
-31 -21 1 -1 18 2 27 10 24 6 -2 11 -13 11 -25z m156 18 c0 -5 -4 -10 -10 -10
-5 0 -10 5 -10 10 0 6 5 10 10 10 6 0 10 -4 10 -10z m798 1 c1 -1 2 -6 2 -11
0 -12 -65 -3 -90 12 -10 6 2 7 35 4 28 -3 51 -5 53 -5z m-1130 -20 c3 -8 0
-11 -7 -7 -6 4 -11 3 -11 -3 0 -5 6 -11 13 -14 25 -9 -2 -18 -37 -12 -37 7
-52 29 -16 23 27 -4 26 16 -2 24 -16 5 -12 6 16 5 23 -1 41 -8 44 -16z m682 9
c0 -5 -19 -10 -42 -9 -37 1 -39 2 -18 9 36 12 60 12 60 0z m524 -21 c-3 -5
-10 -7 -15 -3 -5 3 -7 10 -3 15 3 5 10 7 15 3 5 -3 7 -10 3 -15z m84 -14 c0
-14 -6 -25 -12 -25 -7 0 -7 -3 1 -8 7 -4 10 -17 6 -30 -4 -18 -10 -21 -27 -16
-27 8 -26 6 -19 32 3 12 10 22 15 22 5 0 6 4 3 10 -8 12 13 52 24 45 5 -2 9
-16 9 -30z m-1765 18 c-7 -2 -19 -2 -25 0 -7 3 -2 5 12 5 14 0 19 -2 13 -5z
m337 -3 c0 -5 -7 -10 -15 -10 -8 0 -15 5 -15 10 0 6 7 10 15 10 8 0 15 -4 15
-10z m470 0 c0 -5 -4 -10 -10 -10 -5 0 -10 5 -10 10 0 6 5 10 10 10 6 0 10 -4
10 -10z m690 0 c0 -5 -6 -10 -14 -10 -8 0 -18 5 -21 10 -3 6 3 10 14 10 12 0
21 -4 21 -10z m110 -11 c0 -11 -25 -12 -69 -3 -48 10 -37 19 19 16 27 -2 50
-8 50 -13z m497 -31 c-2 -13 -4 -5 -4 17 -1 22 1 32 4 23 2 -10 2 -28 0 -40z
m-2260 20 c-3 -8 -6 -5 -6 6 -1 11 2 17 5 13 3 -3 4 -12 1 -19z m1873 17 c0
-13 -31 -78 -35 -74 -7 7 17 79 27 79 4 0 8 -2 8 -5z m-567 -12 c-7 -2 -19 -2
-25 0 -7 3 -2 5 12 5 14 0 19 -2 13 -5z m134 1 c-3 -3 -12 -4 -19 -1 -8 3 -5
6 6 6 11 1 17 -2 13 -5z m-427 -14 c0 -5 -4 -10 -10 -10 -5 0 -10 5 -10 10 0
6 5 10 10 10 6 0 10 -4 10 -10z m627 4 c-3 -3 -12 -4 -19 -1 -8 3 -5 6 6 6 11
1 17 -2 13 -5z m188 -4 c-3 -5 -12 -7 -20 -3 -21 7 -19 13 6 13 11 0 18 -4 14
-10z m-85 -10 c13 -9 13 -10 0 -9 -8 0 -24 4 -35 9 l-20 9 20 0 c11 0 27 -4
35 -9z m-1120 -9 c0 -5 -9 -7 -20 -4 -11 3 -20 7 -20 9 0 2 9 4 20 4 11 0 20
-4 20 -9z m-221 -63 c-1 -35 -1 -79 -1 -98 1 -33 -4 -48 -12 -39 -4 4 -9 163
-7 192 1 4 6 7 11 7 6 0 10 -27 9 -62z m691 41 c0 -5 -7 -9 -15 -9 -15 0 -20
12 -9 23 8 8 24 -1 24 -14z m-663 -11 c-3 -8 -6 -5 -6 6 -1 11 2 17 5 13 3 -3
4 -12 1 -19z m623 13 c0 -6 -4 -13 -10 -16 -5 -3 -10 1 -10 9 0 9 5 16 10 16
6 0 10 -4 10 -9z m-200 -17 c0 -8 -5 -12 -10 -9 -6 4 -8 11 -5 16 9 14 15 11
15 -7z m35 6 c3 -5 1 -10 -4 -10 -6 0 -11 5 -11 10 0 6 2 10 4 10 3 0 8 -4 11
-10z m980 -29 c3 -5 1 -12 -5 -16 -5 -3 -10 1 -10 9 0 18 6 21 15 7z m412 -53
c-3 -8 -6 -5 -6 6 -1 11 2 17 5 13 3 -3 4 -12 1 -19z m-790 -70 c-2 -18 -4 -6
-4 27 0 33 2 48 4 33 2 -15 2 -42 0 -60z m100 0 c-2 -18 -4 -6 -4 27 0 33 2
48 4 33 2 -15 2 -42 0 -60z m-1228 25 l-1 -48 -10 34 c-5 18 -7 40 -4 47 10
27 16 14 15 -33z m1166 37 c3 -5 1 -10 -4 -10 -6 0 -11 5 -11 10 0 6 2 10 4
10 3 0 8 -4 11 -10z m-482 -52 l-11 -33 -1 45 c-1 33 2 41 11 32 8 -8 8 -20 1
-44z m1327 42 c0 -5 -4 -10 -10 -10 -5 0 -10 5 -10 10 0 6 5 10 10 10 6 0 10
-4 10 -10z m-1943 -52 c-2 -13 -4 -5 -4 17 -1 22 1 32 4 23 2 -10 2 -28 0 -40z
m580 0 c-2 -13 -4 -5 -4 17 -1 22 1 32 4 23 2 -10 2 -28 0 -40z m79 30 c-3
-13 -6 -26 -6 -30 0 -5 -4 -8 -10 -8 -5 0 -10 14 -10 30 0 21 5 30 16 30 12 0
15 -6 10 -22z m444 -23 c0 -19 -4 -35 -8 -35 -5 0 -9 16 -10 35 -1 19 3 35 8
35 6 0 10 -16 10 -35z m834 9 c3 -8 2 -12 -4 -9 -6 3 -10 10 -10 16 0 14 7 11
14 -7z m-524 -16 c0 -4 -7 -8 -15 -8 -8 0 -15 4 -15 8 0 5 7 9 15 9 8 0 15 -4
15 -9z m293 5 c-7 -2 -19 -2 -25 0 -7 3 -2 5 12 5 14 0 19 -2 13 -5z m-1 -35
c-9 -9 -15 -9 -24 0 -9 9 -7 12 12 12 19 0 21 -3 12 -12z m-1735 -33 c1 -19
-3 -35 -8 -35 -5 0 -9 16 -9 35 0 46 14 46 17 0z m1563 -7 c0 -36 -4 -35 -14
5 -4 16 -2 27 4 27 5 0 10 -14 10 -32z m180 12 c0 -5 -7 -10 -15 -10 -8 0 -15
5 -15 10 0 6 7 10 15 10 8 0 15 -4 15 -10z m-2720 -4 c0 -3 -4 -8 -10 -11 -5
-3 -10 -1 -10 4 0 6 5 11 10 11 6 0 10 -2 10 -4z m2885 -61 c-4 -31 -9 -54
-12 -51 -3 2 -1 30 2 61 4 31 9 54 12 51 3 -2 1 -30 -2 -61z m-745 24 c0 -11
-4 -17 -10 -14 -5 3 -10 13 -10 21 0 8 5 14 10 14 6 0 10 -9 10 -21z m370 11
c0 -5 -2 -10 -4 -10 -3 0 -8 5 -11 10 -3 6 -1 10 4 10 6 0 11 -4 11 -10z
m-1512 -39 c6 0 12 -5 12 -11 0 -5 -7 -7 -15 -4 -8 4 -15 1 -15 -5 0 -6 7 -11
15 -11 10 0 15 -10 15 -30 0 -22 -4 -28 -15 -24 -11 4 -15 0 -15 -16 0 -16 -4
-20 -16 -16 -9 3 -24 6 -33 6 -15 0 -18 7 -15 35 3 39 -12 48 -19 13 -3 -17
-5 -14 -6 9 -1 25 2 31 14 27 10 -4 15 0 15 14 0 20 7 21 78 13z m590 -57 c-2
-19 0 -34 4 -34 4 0 9 16 9 35 1 19 2 40 3 46 0 7 15 13 32 15 31 3 31 3 33
-50 2 -60 -2 -64 -64 -62 -39 2 -40 3 -37 37 3 34 8 69 12 79 6 14 11 -37 8
-66z m-134 41 c-4 -8 -1 -15 6 -15 10 0 10 -3 0 -15 -10 -12 -10 -15 0 -15 10
0 10 -3 0 -15 -6 -8 -9 -19 -5 -25 3 -5 1 -10 -4 -10 -7 0 -11 23 -11 55 0 30
4 55 10 55 5 0 7 -7 4 -15z m670 6 c16 -1 18 -7 13 -36 -3 -21 -2 -33 4 -30 5
4 9 19 9 36 0 16 4 29 9 29 6 0 8 -12 7 -27 -2 -16 -4 -36 -5 -47 -1 -12 -6
-16 -16 -12 -8 3 -15 1 -15 -4 0 -6 6 -10 13 -10 8 -1 7 -4 -3 -9 -8 -5 -26
-8 -40 -6 -14 1 -31 3 -38 4 -9 1 -12 18 -11 60 2 58 3 59 28 56 14 -2 34 -4
45 -4z m729 -22 c-3 -12 -9 -17 -15 -11 -10 10 0 44 12 37 5 -3 6 -14 3 -26z
m-1153 -9 c0 -16 -4 -30 -8 -30 -5 0 -9 14 -9 30 0 17 4 30 9 30 4 0 8 -13 8
-30z m-507 13 c-7 -2 -19 -2 -25 0 -7 3 -2 5 12 5 14 0 19 -2 13 -5z m187 -14
c0 -5 -4 -9 -10 -9 -5 0 -10 7 -10 16 0 8 5 12 10 9 6 -3 10 -10 10 -16z m45
-17 c-2 -15 -4 -33 -4 -39 -1 -7 -4 -13 -9 -13 -4 0 -6 20 -4 45 2 25 8 43 12
40 5 -3 7 -18 5 -33z m465 18 c0 -7 -13 -7 -38 -1 -2 1 -1 5 3 11 6 10 35 2
35 -10z m513 -42 c4 -38 1 -48 -10 -48 -9 0 -13 6 -10 14 3 8 2 16 -3 18 -6 2
-5 19 2 42 13 43 14 42 21 -26z m-863 42 c0 -5 -4 -10 -10 -10 -5 0 -10 5 -10
10 0 6 5 10 10 10 6 0 10 -4 10 -10z m484 -11 c-3 -5 -10 -7 -15 -3 -5 3 -7
10 -3 15 3 5 10 7 15 3 5 -3 7 -10 3 -15z m181 1 c3 -5 1 -10 -4 -10 -6 0 -11
5 -11 10 0 6 2 10 4 10 3 0 8 -4 11 -10z m65 6 c0 -3 -4 -8 -10 -11 -5 -3 -10
-1 -10 4 0 6 5 11 10 11 6 0 10 -2 10 -4z m-1070 -16 c0 -5 -9 -10 -20 -10
-11 0 -20 5 -20 10 0 6 9 10 20 10 11 0 20 -4 20 -10z m180 -10 c0 -5 -4 -10
-10 -10 -5 0 -10 5 -10 10 0 6 5 10 10 10 6 0 10 -4 10 -10z m160 0 c0 -5 -5
-10 -11 -10 -5 0 -7 5 -4 10 3 6 8 10 11 10 2 0 4 -4 4 -10z m350 -2 c0 -4 -7
-8 -15 -8 -8 0 -15 4 -15 8 0 5 7 9 15 9 8 0 15 -4 15 -9z m130 -8 c0 -5 -4
-10 -10 -10 -5 0 -10 5 -10 10 0 6 5 10 10 10 6 0 10 -4 10 -10z m240 0 c0 -5
-4 -10 -10 -10 -5 0 -10 5 -10 10 0 6 5 10 10 10 6 0 10 -4 10 -10z m607 -22
c-3 -7 -5 -2 -5 12 0 14 2 19 5 13 2 -7 2 -19 0 -25z m-1672 12 c3 -5 -3 -10
-14 -10 -12 0 -21 5 -21 10 0 6 6 10 14 10 8 0 18 -4 21 -10z m505 0 c0 -5 -4
-10 -10 -10 -5 0 -10 5 -10 10 0 6 5 10 10 10 6 0 10 -4 10 -10z m-325 -10 c3
-5 1 -10 -4 -10 -6 0 -11 5 -11 10 0 6 2 10 4 10 3 0 8 -4 11 -10z m-365 -10
c0 -5 -2 -10 -4 -10 -3 0 -8 5 -11 10 -3 6 -1 10 4 10 6 0 11 -4 11 -10z
m1257 -6 c-3 -3 -12 -4 -19 -1 -8 3 -5 6 6 6 11 1 17 -2 13 -5z m-1080 -10
c-3 -3 -12 -4 -19 -1 -8 3 -5 6 6 6 11 1 17 -2 13 -5z m1613 -10 c0 -8 -5 -12
-10 -9 -6 4 -8 11 -5 16 9 14 15 11 15 -7z m-1223 -16 c-3 -8 -6 -5 -6 6 -1
11 2 17 5 13 3 -3 4 -12 1 -19z m43 7 c0 -8 -4 -15 -10 -15 -5 0 -10 7 -10 15
0 8 5 15 10 15 6 0 10 -7 10 -15z m1220 7 c0 -13 -12 -22 -22 -16 -10 6 -1 24
13 24 5 0 9 -4 9 -8z m-1900 -6 c0 -3 -4 -8 -10 -11 -5 -3 -10 -1 -10 4 0 6 5
11 10 11 6 0 10 -2 10 -4z m1156 -23 c-10 -10 -19 5 -10 18 6 11 8 11 12 0 2
-7 1 -15 -2 -18z m-26 7 c0 -5 -4 -10 -10 -10 -5 0 -10 5 -10 10 0 6 5 10 10
10 6 0 10 -4 10 -10z m53 -10 c-3 -11 -7 -20 -9 -20 -2 0 -4 9 -4 20 0 11 4
20 9 20 5 0 7 -9 4 -20z m631 -15 c-4 -8 -1 -15 5 -15 6 0 11 7 11 15 0 10 9
14 30 12 24 -2 30 -7 30 -25 0 -13 4 -20 10 -17 6 4 8 10 5 15 -3 5 -1 11 5
15 10 6 7 -101 -4 -112 -3 -4 -6 1 -6 10 0 10 -4 17 -10 17 -5 0 -9 -3 -7 -7
4 -13 -12 -16 -54 -9 -41 7 -42 7 -35 44 3 20 6 45 6 55 0 9 4 17 10 17 5 0 7
-7 4 -15z m-657 -17 c-3 -8 -6 -5 -6 6 -1 11 2 17 5 13 3 -3 4 -12 1 -19z m30
-35 c-3 -10 -5 -4 -5 12 0 17 2 24 5 18 2 -7 2 -21 0 -30z m768 -3 c3 -5 1
-10 -4 -10 -6 0 -11 5 -11 10 0 6 2 10 4 10 3 0 8 -4 11 -10z m-1208 -47 c-3
-10 -5 -2 -5 17 0 19 2 27 5 18 2 -10 2 -26 0 -35z m-68 20 c-1 -10 -5 -31 -9
-48 -7 -27 -8 -25 -9 18 0 26 4 47 9 47 6 0 9 -8 9 -17z m24 2 c4 -8 2 -17 -3
-20 -6 -4 -10 3 -10 14 0 25 6 27 13 6z m414 -32 c-3 -10 -5 -4 -5 12 0 17 2
24 5 18 2 -7 2 -21 0 -30z m32 -5 c-1 -35 -2 -38 -8 -18 -7 23 -4 60 5 60 2 0
4 -19 3 -42z m798 20 c-3 -8 -6 -5 -6 6 -1 11 2 17 5 13 3 -3 4 -12 1 -19z
m-766 -25 c-4 -34 -5 -36 -11 -13 -4 14 -2 31 3 38 13 17 14 16 8 -25z m859
27 c13 -9 13 -10 0 -10 -8 0 -22 5 -30 10 -13 9 -13 10 0 10 8 0 22 -5 30 -10z
m-5 -30 c3 -5 -1 -10 -9 -10 -8 0 -18 5 -21 10 -3 6 1 10 9 10 8 0 18 -4 21
-10z m-2965 -10 c0 -5 -4 -10 -10 -10 -5 0 -10 5 -10 10 0 6 5 10 10 10 6 0
10 -4 10 -10z m-5 -30 c3 -5 1 -10 -4 -10 -6 0 -11 5 -11 10 0 6 2 10 4 10 3
0 8 -4 11 -10z m2765 -75 c0 -8 -7 -15 -16 -15 -14 0 -14 3 -4 15 7 8 14 15
16 15 2 0 4 -7 4 -15z m30 -11 c0 -8 -5 -12 -10 -9 -6 4 -8 11 -5 16 9 14 15
11 15 -7z m-1390 -15 c0 -16 4 -19 19 -14 18 5 19 1 18 -40 -1 -25 -5 -45 -9
-45 -8 0 -12 31 -9 58 1 6 -3 12 -9 12 -5 0 -10 -9 -10 -20 0 -11 -5 -20 -10
-20 -7 0 -10 19 -9 45 3 44 19 65 19 24z m35 11 c3 -5 1 -10 -4 -10 -6 0 -11
5 -11 10 0 6 2 10 4 10 3 0 8 -4 11 -10z m146 -60 c6 0 8 4 4 10 -8 12 5 60
16 60 5 0 9 -7 9 -16 0 -11 6 -14 20 -9 18 6 20 2 20 -44 l0 -51 -36 0 c-28 0
-35 3 -31 15 4 8 2 17 -3 20 -6 4 -10 -3 -10 -14 0 -12 -4 -21 -8 -21 -11 0
-14 56 -4 95 l7 30 3 -37 c2 -21 8 -38 13 -38z m99 61 c0 -4 -11 -6 -25 -3
-14 2 -25 6 -25 8 0 2 11 4 25 4 14 0 25 -4 25 -9z m-721 -61 c-2 -44 -6 -60
-16 -60 -10 0 -12 6 -8 21 6 18 4 20 -13 15 -18 -6 -21 -3 -20 24 1 37 18 52
18 16 0 -14 5 -26 11 -26 6 0 8 9 4 20 -4 11 -2 20 4 20 6 0 8 7 5 15 -4 8 -1
15 5 15 8 0 11 -21 10 -60z m1081 45 c0 -8 4 -15 10 -15 5 0 7 7 4 15 -4 9 0
15 10 15 9 0 16 -8 16 -21 0 -11 4 -18 10 -14 5 3 7 12 3 20 -4 11 2 15 23 14
17 -1 22 -3 12 -6 -22 -5 -24 -23 -4 -23 10 0 14 -9 12 -27 -5 -40 -7 -41 -16
-13 l-8 25 -1 -24 c-1 -16 -5 -21 -16 -18 -8 4 -17 2 -20 -3 -3 -5 5 -10 17
-12 19 -3 17 -5 -9 -9 -32 -5 -32 -5 -28 28 2 18 0 33 -5 33 -6 0 -10 -13 -10
-30 0 -16 -4 -30 -8 -30 -5 0 -8 25 -8 55 1 30 4 55 9 55 4 0 7 -7 7 -15z
m-690 -15 c0 -5 -4 -10 -10 -10 -5 0 -10 5 -10 10 0 6 5 10 10 10 6 0 10 -4
10 -10z m170 0 c0 -5 -5 -10 -11 -10 -5 0 -7 5 -4 10 3 6 8 10 11 10 2 0 4 -4
4 -10z m-630 -4 c0 -3 -4 -8 -10 -11 -5 -3 -10 -1 -10 4 0 6 5 11 10 11 6 0
10 -2 10 -4z m97 -18 c-3 -8 -6 -5 -6 6 -1 11 2 17 5 13 3 -3 4 -12 1 -19z
m880 16 c-3 -3 -12 -4 -19 -1 -8 3 -5 6 6 6 11 1 17 -2 13 -5z m-517 -24 c0
-5 -4 -10 -10 -10 -5 0 -10 5 -10 10 0 6 5 10 10 10 6 0 10 -4 10 -10z m-465
-10 c3 -5 1 -10 -4 -10 -6 0 -11 5 -11 10 0 6 2 10 4 10 3 0 8 -4 11 -10z
m795 0 c0 -5 -4 -10 -10 -10 -5 0 -10 5 -10 10 0 6 5 10 10 10 6 0 10 -4 10
-10z m315 0 c3 -5 1 -10 -4 -10 -6 0 -11 5 -11 10 0 6 2 10 4 10 3 0 8 -4 11
-10z m-1005 -10 c0 -5 -2 -10 -4 -10 -3 0 -8 5 -11 10 -3 6 -1 10 4 10 6 0 11
-4 11 -10z m410 -20 c0 -5 -4 -10 -10 -10 -5 0 -10 5 -10 10 0 6 5 10 10 10 6
0 10 -4 10 -10z m280 0 c0 -5 -4 -10 -10 -10 -5 0 -10 5 -10 10 0 6 5 10 10
10 6 0 10 -4 10 -10z m1095 -30 c3 -5 1 -10 -4 -10 -6 0 -11 5 -11 10 0 6 2
10 4 10 3 0 8 -4 11 -10z m-1205 -14 c0 -3 -4 -8 -10 -11 -5 -3 -10 -1 -10 4
0 6 5 11 10 11 6 0 10 -2 10 -4z m40 0 c0 -11 -19 -15 -25 -6 -3 5 1 10 9 10
9 0 16 -2 16 -4z m35 -6 c-3 -5 -10 -10 -16 -10 -5 0 -9 5 -9 10 0 6 7 10 16
10 8 0 12 -4 9 -10z m445 0 c0 -5 -2 -10 -4 -10 -3 0 -8 5 -11 10 -3 6 -1 10
4 10 6 0 11 -4 11 -10z m650 -20 c0 -5 -7 -10 -15 -10 -8 0 -15 5 -15 10 0 6
7 10 15 10 8 0 15 -4 15 -10z m40 -10 c0 -5 -7 -10 -15 -10 -8 0 -15 5 -15 10
0 6 7 10 15 10 8 0 15 -4 15 -10z m-87 -30 c-3 -11 -9 -20 -13 -20 -5 0 -6 9
-3 20 3 11 9 20 13 20 5 0 6 -9 3 -20z m63 10 c9 0 14 -11 14 -30 0 -29 -13
-40 -25 -20 -3 5 -12 7 -19 4 -19 -7 -29 11 -21 37 4 13 12 18 22 15 8 -3 21
-6 29 -6z"/>
<path d="M1840 2040 c0 -5 5 -10 10 -10 6 0 10 5 10 10 0 6 -4 10 -10 10 -5 0
-10 -4 -10 -10z"/>
<path d="M2415 1308 c4 -79 11 -147 17 -153 5 -6 7 35 4 105 -3 63 -5 132 -6
153 0 20 -5 37 -11 37 -7 0 -8 -44 -4 -142z"/>
<path d="M2450 1434 c0 -8 5 -12 10 -9 6 4 8 11 5 16 -9 14 -15 11 -15 -7z"/>
<path d="M2455 1285 c2 -69 8 -125 12 -125 4 0 8 11 9 24 1 13 4 31 7 40 3 8
2 18 -3 21 -6 4 -10 42 -10 86 0 43 -4 79 -9 79 -6 0 -8 -52 -6 -125z"/>
<path d="M2460 1025 c0 -8 5 -15 10 -15 6 0 10 7 10 15 0 8 -4 15 -10 15 -5 0
-10 -7 -10 -15z"/>
<path d="M1316 1402 c-9 -55 -7 -92 4 -92 6 0 10 15 11 33 0 17 2 45 3 60 3
43 -11 42 -18 -1z"/>
<path d="M915 1440 c-3 -5 -1 -10 4 -10 6 0 11 5 11 10 0 6 -2 10 -4 10 -3 0
-8 -4 -11 -10z"/>
<path d="M1265 1060 c3 -5 8 -10 11 -10 2 0 4 5 4 10 0 6 -5 10 -11 10 -5 0
-7 -4 -4 -10z"/>
<path d="M880 1100 c0 -5 5 -10 10 -10 6 0 10 5 10 10 0 6 -4 10 -10 10 -5 0
-10 -4 -10 -10z"/>
<path d="M1340 649 c0 -5 5 -7 10 -4 6 3 10 8 10 11 0 2 -4 4 -10 4 -5 0 -10
-5 -10 -11z"/>
<path d="M1300 620 c0 -5 5 -10 11 -10 5 0 7 5 4 10 -3 6 -8 10 -11 10 -2 0
-4 -4 -4 -10z"/>
<path d="M2460 680 c0 -5 5 -10 11 -10 5 0 7 5 4 10 -3 6 -8 10 -11 10 -2 0
-4 -4 -4 -10z"/>
<path d="M3155 510 c3 -5 8 -10 11 -10 2 0 4 5 4 10 0 6 -5 10 -11 10 -5 0 -7
-4 -4 -10z"/>
<path d="M3111 488 c0 -9 -4 -23 -7 -31 -4 -10 4 -16 25 -19 17 -3 31 -1 31 4
0 4 -9 8 -19 8 -14 0 -21 8 -24 28 -2 15 -5 19 -6 10z"/>
<path d="M22 3680 c0 -14 2 -19 5 -12 2 6 2 18 0 25 -3 6 -5 1 -5 -13z"/>
<path d="M160 3466 c0 -9 5 -16 10 -16 6 0 10 4 10 9 0 6 -4 13 -10 16 -5 3
-10 -1 -10 -9z"/>
<path d="M30 3431 c0 -5 9 -7 20 -4 11 3 20 7 20 9 0 2 -9 4 -20 4 -11 0 -20
-4 -20 -9z"/>
<path d="M172 3420 c0 -14 2 -19 5 -12 2 6 2 18 0 25 -3 6 -5 1 -5 -13z"/>
<path d="M170 3371 c0 -6 4 -11 9 -11 5 0 11 -8 13 -17 3 -14 5 -13 10 5 4 13
4 21 1 18 -4 -3 -12 -1 -20 5 -9 9 -13 8 -13 0z"/>
<path d="M3327 3313 c-20 -19 7 -63 37 -63 16 0 3 18 -15 23 -16 4 -20 11 -16
26 5 22 4 25 -6 14z"/>
<path d="M2 2733 c-1 -310 0 -563 2 -563 2 0 28 16 57 35 30 19 58 35 63 35 5
0 18 10 30 23 12 12 40 31 61 42 22 11 52 28 67 38 14 11 30 17 35 14 4 -3 13
6 20 19 6 13 7 24 2 24 -5 0 -9 36 -9 80 0 77 -1 80 -24 80 -21 0 -23 4 -21
38 1 20 3 40 4 45 2 15 18 6 29 -15 8 -19 10 -13 7 32 -3 42 -2 48 4 25 7 -23
9 -11 11 55 3 112 11 144 34 148 19 4 19 3 2 -14 -15 -14 -17 -27 -11 -72 4
-30 9 -61 12 -69 10 -27 23 -12 23 27 0 22 5 40 10 40 6 0 10 18 10 40 0 22
-4 40 -10 40 -5 0 -10 9 -10 20 0 11 -4 20 -10 20 -5 0 -10 10 -11 23 -1 20
-2 19 -11 -6 -5 -15 -14 -24 -19 -21 -12 7 -48 -23 -60 -51 -8 -17 -9 -16 -4
5 2 14 5 40 5 59 0 28 2 32 15 21 23 -19 35 -4 23 30 -5 17 -7 37 -4 45 3 8 2
15 -3 15 -5 0 -12 -10 -16 -22 -6 -19 -8 -20 -12 -6 -2 9 1 27 8 39 9 18 9 25
-5 34 -22 16 -20 24 4 18 11 -3 20 0 20 6 0 6 -6 11 -13 11 -15 0 -38 34 -53
80 -11 33 -12 34 -13 8 -1 -38 -18 -35 -36 5 l-14 32 3 -50 c2 -27 1 -38 -1
-22 -5 30 -19 36 -25 10 -2 -10 -3 -82 -2 -160 1 -144 -3 -162 -34 -131 -16
16 -15 43 3 58 29 24 13 99 -19 87 -14 -5 -15 -3 -6 13 11 21 4 70 -11 70 -5
0 -10 -19 -11 -42 l-1 -43 -4 40 c-3 22 -8 42 -12 45 -4 3 -13 14 -19 25 -10
18 -11 18 -12 -10 0 -16 -4 -36 -9 -44 -11 -17 -19 35 -24 139 -2 36 -4 -188
-5 -497z m238 407 c0 -5 -2 -10 -4 -10 -3 0 -8 5 -11 10 -3 6 -1 10 4 10 6 0
11 -4 11 -10z m84 -275 c-4 -8 -8 -15 -10 -15 -2 0 -4 7 -4 15 0 8 4 15 10 15
5 0 7 -7 4 -15z m-150 -57 c4 -35 3 -59 -4 -63 -6 -4 -10 17 -10 61 0 80 5 81
14 2z m136 6 c0 -8 5 -14 10 -14 6 0 10 -7 10 -17 0 -14 -2 -14 -20 2 -20 18
-29 62 -10 50 6 -3 10 -13 10 -21z m-3 -130 c-9 -9 -28 6 -21 18 4 6 10 6 17
-1 6 -6 8 -13 4 -17z m-127 -35 c0 -24 -4 -38 -10 -34 -5 3 -10 22 -10 41 0
19 5 34 10 34 6 0 10 -18 10 -41z m-30 6 c0 -8 -4 -15 -10 -15 -5 0 -10 7 -10
15 0 8 5 15 10 15 6 0 10 -7 10 -15z m27 -197 c-3 -8 -6 -5 -6 6 -1 11 2 17 5
13 3 -3 4 -12 1 -19z"/>
<path d="M498 3105 c2 -14 6 -25 8 -25 2 0 4 11 4 25 0 14 -4 25 -9 25 -4 0
-6 -11 -3 -25z"/>
<path d="M136 3082 c-2 -4 -1 -14 5 -22 7 -12 9 -10 9 8 0 23 -5 28 -14 14z"/>
<path d="M507 3047 c-10 -27 -9 -65 3 -72 15 -9 20 15 12 55 -6 28 -9 31 -15
17z"/>
<path d="M546 3001 c-4 -7 -5 -15 -2 -18 9 -9 19 4 14 18 -4 11 -6 11 -12 0z"/>
<path d="M510 2951 c0 -6 5 -13 10 -16 6 -3 10 1 10 9 0 9 -4 16 -10 16 -5 0
-10 -4 -10 -9z"/>
<path d="M833 2915 c0 -22 2 -30 4 -17 2 12 2 30 0 40 -3 9 -5 -1 -4 -23z"/>
<path d="M552 2910 c0 -14 2 -19 5 -12 2 6 2 18 0 25 -3 6 -5 1 -5 -13z"/>
<path d="M760 2900 c0 -5 5 -10 10 -10 6 0 10 5 10 10 0 6 -4 10 -10 10 -5 0
-10 -4 -10 -10z"/>
<path d="M540 2854 c13 -34 13 -97 -1 -111 -6 -6 -10 -51 -11 -104 0 -165 1
-174 14 -161 10 10 27 243 23 317 -1 17 -3 42 -3 58 -1 16 -8 27 -17 27 -11 0
-12 -5 -5 -26z"/>
<path d="M749 2858 c0 -13 -2 -69 -4 -125 -4 -83 -2 -103 9 -103 8 0 20 -2 28
-3 7 -2 10 -2 6 0 -4 2 -4 11 -1 19 3 7 10 11 15 8 6 -4 5 3 -1 15 -8 14 -8
21 -1 21 5 0 10 5 10 11 0 5 -4 7 -10 4 -5 -3 -10 -1 -10 6 0 8 -4 8 -15 -1
-13 -11 -15 -2 -15 71 0 75 1 81 15 63 14 -18 14 -18 15 9 0 20 -5 27 -20 27
-14 0 -20 -7 -21 -22z"/>
<path d="M802 2860 c0 -14 2 -19 5 -12 2 6 2 18 0 25 -3 6 -5 1 -5 -13z"/>
<path d="M716 2814 c-7 -51 -8 -200 -2 -193 5 5 18 239 13 239 -3 0 -7 -21
-11 -46z"/>
<path d="M826 2838 c-4 -15 -5 -36 -1 -48 4 -11 2 -27 -4 -34 -7 -9 -8 -29 -2
-62 5 -27 7 -52 5 -56 -3 -4 1 -5 9 -2 8 3 12 14 10 28 -4 19 1 25 24 31 15 4
23 9 17 12 -7 2 -10 13 -7 23 6 23 -7 101 -14 83 -9 -24 -22 -13 -25 20 l-4
32 -8 -27z"/>
<path d="M1081 2806 c0 -10 -9 -25 -18 -32 -20 -15 -6 -19 15 -5 8 5 12 19 9
32 -3 17 -5 19 -6 5z"/>
<path d="M770 2760 c0 -11 5 -20 10 -20 6 0 10 9 10 20 0 11 -4 20 -10 20 -5
0 -10 -9 -10 -20z"/>
<path d="M2180 2733 c0 -4 5 -15 10 -23 8 -13 10 -13 10 2 0 9 -4 20 -10 23
-5 3 -10 3 -10 -2z"/>
<path d="M1060 2665 c-11 -13 -11 -18 -2 -24 7 -4 10 -15 6 -25 -4 -10 -1 -43
7 -74 10 -43 10 -57 1 -60 -7 -2 -10 -8 -7 -13 4 -5 12 -4 19 3 8 8 10 26 6
56 -6 38 -5 45 11 49 16 5 17 7 3 20 -11 11 -12 19 -4 28 8 10 7 16 -3 22 -8
4 -16 14 -18 22 -4 10 -8 10 -19 -4z"/>
<path d="M856 2615 c-12 -9 -15 -15 -7 -15 11 0 11 -3 1 -15 -7 -8 -10 -15 -7
-15 3 0 12 -2 19 -5 10 -4 14 4 15 30 0 19 0 35 -1 35 0 0 -10 -7 -20 -15z"/>
<path d="M792 2580 c-18 -10 -29 -21 -24 -24 5 -3 15 1 22 9 6 7 18 11 26 8 8
-3 14 1 14 11 0 19 3 19 -38 -4z"/>
<path d="M455 2550 c3 -5 8 -10 11 -10 2 0 4 5 4 10 0 6 -5 10 -11 10 -5 0 -7
-4 -4 -10z"/>
<path d="M737 2523 c-9 -66 -8 -418 0 -409 4 4 8 24 9 44 3 167 3 167 18 147
12 -17 14 -15 24 31 8 36 7 63 -1 99 l-12 50 -3 -42 c-2 -24 -8 -43 -14 -43
-7 0 -9 25 -6 75 5 78 -6 114 -15 48z"/>
<path d="M808 2553 c7 -3 16 -2 19 1 4 3 -2 6 -13 5 -11 0 -14 -3 -6 -6z"/>
<path d="M871 2524 c0 -11 3 -14 6 -6 3 7 2 16 -1 19 -3 4 -6 -2 -5 -13z"/>
<path d="M708 2453 c5 -59 10 -63 11 -10 1 26 -3 47 -7 47 -4 0 -6 -17 -4 -37z"/>
<path d="M712 2350 c0 -14 2 -19 5 -12 2 6 2 18 0 25 -3 6 -5 1 -5 -13z"/>
<path d="M597 2353 c-2 -5 -1 -33 3 -63 l7 -55 2 63 c1 58 -2 73 -12 55z"/>
<path d="M797 2323 c-4 -3 -7 -13 -7 -22 1 -13 3 -13 11 2 11 19 8 33 -4 20z"/>
<path d="M711 2304 c0 -11 3 -14 6 -6 3 7 2 16 -1 19 -3 4 -6 -2 -5 -13z"/>
<path d="M862 2270 c0 -14 2 -19 5 -12 2 6 2 18 0 25 -3 6 -5 1 -5 -13z"/>
<path d="M821 2238 c1 -37 2 -39 9 -18 12 36 12 60 0 60 -5 0 -10 -19 -9 -42z"/>
<path d="M416 2261 c-7 -11 14 -51 27 -51 9 0 -1 40 -13 53 -4 5 -11 4 -14 -2z"/>
<path d="M768 2264 c-14 -14 -9 -46 6 -41 8 3 17 1 20 -6 2 -7 4 4 5 23 0 27
-2 31 -8 15 -8 -19 -9 -19 -12 -2 -2 11 -7 15 -11 11z"/>
<path d="M693 2186 c1 -17 9 -31 17 -33 10 -3 11 -2 4 4 -7 4 -14 19 -17 33
-4 22 -5 21 -4 -4z"/>
<path d="M417 2180 c-9 -11 -13 -20 -8 -20 11 0 35 29 29 35 -2 2 -12 -4 -21
-15z"/>
<path d="M1292 2150 c0 -14 2 -19 5 -12 2 6 2 18 0 25 -3 6 -5 1 -5 -13z"/>
<path d="M3100 1710 c0 -5 5 -10 11 -10 5 0 7 5 4 10 -3 6 -8 10 -11 10 -2 0
-4 -4 -4 -10z"/>
<path d="M3198 1653 c7 -3 16 -2 19 1 4 3 -2 6 -13 5 -11 0 -14 -3 -6 -6z"/>
<path d="M3182 1540 c0 -8 4 -26 8 -40 6 -20 8 -21 8 -5 0 11 -3 29 -8 40 -5
12 -8 14 -8 5z"/>
<path d="M3161 1514 c0 -11 3 -14 6 -6 3 7 2 16 -1 19 -3 4 -6 -2 -5 -13z"/>
<path d="M3180 1428 c0 -30 13 -78 20 -78 4 0 4 19 -2 42 -10 45 -18 61 -18
36z"/>
<path d="M3214 1163 c3 -16 8 -50 12 -76 10 -73 17 -48 9 32 -4 39 -11 71 -17
71 -5 0 -7 -12 -4 -27z"/>
</g>
</svg>
